<svg width="107" height="44" viewBox="0 0 107 44" fill="none" xmlns="http://www.w3.org/2000/svg">
<path d="M14.552 0.505859H18.404V19.0379C18.404 24.9262 14.0527 28.0691 9.59436 28.0691C4.63669 28.0691 0.749023 24.0592 0.749023 19.1824C0.749023 14.2333 4.52969 10.2957 9.55869 10.2957C12.6974 10.2957 14.5164 11.8852 14.5164 11.8852L14.552 0.505859ZM9.59436 24.3121C12.412 24.3121 14.552 22.1085 14.552 19.1824C14.552 16.1118 12.3407 14.0527 9.59436 14.0527C6.81236 14.0527 4.63669 16.184 4.63669 19.1824C4.63669 22.1085 6.81236 24.3121 9.59436 24.3121Z" fill="white"/>
<path d="M30.9584 19.8685V10.4761H34.8104V19.8685C34.8104 25.8291 30.994 28.0688 27.463 28.0688C24.0034 28.0688 20.1514 25.8652 20.1514 19.8685V10.4761H24.0034V19.8685C24.0034 22.903 25.43 24.3119 27.4274 24.3119C29.5317 24.3119 30.9584 22.8669 30.9584 19.8685Z" fill="white"/>
<path d="M40.4458 18.4962V27.8887H36.5938V18.4962C36.5938 12.4995 40.4101 10.2959 43.9054 10.2959C47.4008 10.2959 51.2527 12.5356 51.2527 18.4962V27.8887H47.4007V18.4962C47.4007 15.534 45.9741 14.0529 43.9411 14.0529C41.8724 14.0168 40.4458 15.4617 40.4458 18.4962Z" fill="white"/>
<path d="M57.423 28.0693C54.7124 28.0693 52.6437 26.8049 52.6437 26.8049V23.0118C52.6437 23.0118 54.748 24.3123 57.423 24.3123C58.4217 24.3123 59.777 24.0233 59.777 22.6867C59.777 19.9412 52.4297 20.9888 52.4297 15.3895C52.4297 12.1744 55.1047 10.2959 58.493 10.2959C61.275 10.2959 62.9157 11.4158 62.9157 11.4158V15.0644C62.9157 15.0644 61.1324 14.089 58.493 14.089C57.7797 14.089 56.3174 14.3058 56.3174 15.4256C56.3174 17.846 63.6647 16.7984 63.6647 22.7228C63.629 26.0463 61.1324 28.0693 57.423 28.0693Z" fill="white"/>
<path d="M72.2961 27.8885H71.4758C68.0518 27.8885 64.8418 26.3351 64.8418 20.9164V2.70947H68.6581V10.4763H71.9751V14.2333H68.6581V20.8802C68.6581 22.9394 69.3715 24.0954 71.4758 24.0954H72.2961V27.8885Z" fill="white"/>
<path d="M85.8855 26.4798C85.8855 26.4798 84.0665 28.0693 80.9278 28.0693C75.8988 28.0693 72.1182 24.0956 72.1182 19.1826C72.1182 14.2696 75.9702 10.2959 80.9278 10.2959C85.3862 10.2959 89.7375 13.4388 89.7375 19.3271V27.8887H85.8855V26.4798ZM80.9278 24.3123C83.6742 24.3123 85.8855 22.2171 85.8855 19.1826C85.8855 16.2565 83.7455 14.0529 80.9278 14.0529C78.1458 14.0529 75.9702 16.2565 75.9702 19.1826C75.9702 22.181 78.1458 24.3123 80.9278 24.3123Z" fill="white"/>
<path d="M95.4081 18.4962V27.8887H91.5562V18.4962C91.5562 12.4995 95.3725 10.2959 98.8678 10.2959C102.363 10.2959 106.215 12.5356 106.215 18.4962V27.8887H102.363V18.4962C102.363 15.534 100.936 14.0529 98.9035 14.0529C96.7991 14.0168 95.4081 15.4617 95.4081 18.4962Z" fill="white"/>
<path d="M0.78418 33.4878H1.39051V36.1249C1.71151 35.5108 2.35351 35.1857 3.13818 35.1857C4.24385 35.1857 5.13551 35.9082 5.13551 37.3531V40.3154H4.52918V37.4254C4.52918 36.3055 3.92285 35.7275 2.99551 35.7275C2.06818 35.7275 1.39051 36.3055 1.39051 37.5338V40.2793H0.78418V33.4878Z" fill="white"/>
<path d="M8.66603 35.2218C9.6647 35.2218 10.3424 35.7637 10.6634 36.414V35.2941H11.2697V40.3516H10.6634V39.2317C10.3424 39.8458 9.70037 40.4238 8.66603 40.4238C7.3107 40.4238 6.27637 39.4123 6.27637 37.8228C6.27637 36.2333 7.3107 35.2218 8.66603 35.2218ZM8.77303 35.7637C7.7387 35.7637 6.91837 36.5223 6.91837 37.7867C6.91837 39.0511 7.7387 39.8458 8.77303 39.8458C9.7717 39.8458 10.6277 39.0511 10.6277 37.7867C10.6277 36.5585 9.7717 35.7637 8.77303 35.7637ZM7.81003 34.1742C7.81003 33.9213 7.98837 33.7407 8.23803 33.7407C8.4877 33.7407 8.66603 33.9213 8.66603 34.1742C8.66603 34.4271 8.4877 34.6077 8.23803 34.6077C7.98837 34.6077 7.81003 34.391 7.81003 34.1742ZM9.20103 34.1742C9.20103 33.9213 9.37937 33.7407 9.62903 33.7407C9.8787 33.7407 10.057 33.9213 10.057 34.1742C10.057 34.4271 9.8787 34.6077 9.62903 34.6077C9.41503 34.6077 9.20103 34.391 9.20103 34.1742Z" fill="white"/>
<path d="M14.4441 40.4237C13.3028 40.4237 12.4825 39.8457 12.4111 38.9425H13.0888C13.1245 39.4844 13.6238 39.8818 14.4441 39.8818C15.1575 39.8818 15.5855 39.4844 15.5855 39.0148C15.5855 37.7504 12.5895 38.509 12.5895 36.5944C12.5895 35.8358 13.3028 35.2217 14.3371 35.2217C15.3715 35.2217 16.1205 35.7997 16.1561 36.775H15.5498C15.5141 36.2332 15.0861 35.7997 14.3371 35.7997C13.6595 35.7997 13.2315 36.1609 13.2315 36.5944C13.2315 37.9672 16.1918 37.2085 16.2275 39.0509C16.1561 39.8457 15.4785 40.4237 14.4441 40.4237Z" fill="white"/>
<path d="M17.5835 35.8355H16.8701V35.2937H17.5835V34.0293H18.2611V35.2937H19.6165V35.8355H18.2611V38.9784C18.2611 39.5925 18.4395 39.8093 19.0458 39.8093H19.6165V40.3511H18.9031C18.0471 40.3511 17.5835 39.9899 17.5835 38.9784V35.8355Z" fill="white"/>
<path d="M20.1865 36.6304H23.7175V37.1722H20.1865V36.6304Z" fill="white"/>
<path d="M32.5985 40.3515L30.9578 38.5453C30.9578 38.5814 30.9578 38.6175 30.9578 38.6537C30.9578 38.7259 30.9578 38.8343 30.9222 38.9788C30.8865 39.4123 30.6725 39.7374 30.3872 39.9903C30.0662 40.2793 29.6738 40.3876 29.2458 40.3876C28.8892 40.3876 28.5325 40.3154 28.2472 40.1348C27.9262 39.9903 27.7122 39.7374 27.5338 39.4484C27.3912 39.1233 27.2842 38.8343 27.2842 38.4369C27.2842 38.0395 27.3555 37.7144 27.5338 37.4254C27.6765 37.1364 27.8905 36.9197 28.1402 36.8113C28.4255 36.6668 28.6752 36.5584 28.9962 36.5584C29.1032 36.5584 29.2458 36.5584 29.3528 36.5945C29.2458 36.45 29.1745 36.4139 29.1745 36.3417C28.9962 36.0888 28.8178 35.9082 28.7108 35.7275C28.6038 35.5469 28.5682 35.294 28.5682 35.0051C28.5682 34.7522 28.6395 34.5354 28.7465 34.2826C28.8535 34.0297 29.0675 33.8852 29.2815 33.7407C29.5312 33.6323 29.8165 33.5601 30.1732 33.5601C30.7082 33.5601 31.1005 33.7046 31.3858 33.9936C31.6712 34.2826 31.8138 34.6077 31.8495 35.0412C31.8852 35.1857 31.8852 35.3663 31.8852 35.5108H31.2788C31.2788 35.4747 31.2788 35.4385 31.2788 35.3663C31.2788 35.294 31.2788 35.2579 31.2788 35.2579C31.2788 34.8967 31.2075 34.6438 30.9935 34.4271C30.8152 34.2464 30.5298 34.1381 30.2088 34.1381C29.8878 34.1381 29.6738 34.2103 29.4598 34.4271C29.2815 34.6077 29.1745 34.8244 29.1745 35.1134C29.1745 35.3663 29.2102 35.5108 29.2815 35.6553C29.3528 35.7998 29.4598 35.9804 29.6738 36.161L33.2405 40.2793L32.5985 40.3515ZM30.2445 39.4845C30.4942 39.2317 30.6012 38.9427 30.6012 38.5453C30.6012 38.2563 30.5298 38.0395 30.4228 37.8228C30.2802 37.5699 30.1018 37.4254 29.8878 37.317C29.6382 37.2087 29.4242 37.1364 29.1745 37.1364C28.8178 37.1364 28.4968 37.2448 28.3185 37.4977C28.1402 37.7505 27.9618 38.0395 27.9618 38.473C27.9618 38.9065 28.0688 39.2678 28.3542 39.4845C28.6395 39.7374 28.9248 39.8819 29.3172 39.8819C29.7095 39.8458 29.9948 39.7013 30.2445 39.4845Z" fill="white"/>
<path d="M38.5909 35.2217C39.5539 35.2217 40.2672 35.7636 40.5882 36.4138V35.2939H41.1945V40.4598C41.1945 41.8686 40.2315 42.8079 38.8762 42.8079C37.5922 42.8079 36.7005 42.1215 36.4865 41.0739H37.0929C37.2712 41.7603 37.9489 42.2299 38.8405 42.2299C39.7679 42.2299 40.5169 41.6158 40.5169 40.4598V39.1954C40.1959 39.8095 39.5539 40.3875 38.5195 40.3875C37.1642 40.3875 36.1299 39.376 36.1299 37.7865C36.1299 36.197 37.2355 35.2217 38.5909 35.2217ZM38.7335 35.7636C37.6992 35.7636 36.8789 36.5222 36.8789 37.7865C36.8789 39.0509 37.6992 39.8457 38.7335 39.8457C39.7322 39.8457 40.5882 39.0509 40.5882 37.7865C40.5882 36.5583 39.7679 35.7636 38.7335 35.7636Z" fill="white"/>
<path d="M44.7969 35.2216C45.7956 35.2216 46.4732 35.7635 46.7942 36.4138V35.2939H47.4006V40.3514H46.7942V39.2315C46.4732 39.8456 45.8312 40.4236 44.7969 40.4236C43.4416 40.4236 42.4072 39.4121 42.4072 37.8226C42.4072 36.2331 43.4416 35.2216 44.7969 35.2216ZM44.9039 35.7635C43.8696 35.7635 43.0492 36.5221 43.0492 37.7865C43.0492 39.0509 43.8696 39.8456 44.9039 39.8456C45.9026 39.8456 46.7586 39.0509 46.7586 37.7865C46.7586 36.5583 45.9026 35.7635 44.9039 35.7635ZM46.0096 33.7766C46.0096 34.3546 45.5816 34.6798 45.0822 34.6798C44.5829 34.6798 44.1549 34.3185 44.1549 33.7766C44.1549 33.2348 44.5829 32.8374 45.0822 32.8374C45.5816 32.8735 46.0096 33.1986 46.0096 33.7766ZM45.6172 33.7766C45.6172 33.4154 45.3676 33.2348 45.0822 33.2348C44.7612 33.2348 44.5472 33.4154 44.5472 33.7766C44.5472 34.1379 44.7969 34.3185 45.0822 34.3185C45.3676 34.3546 45.6172 34.1379 45.6172 33.7766Z" fill="white"/>
<path d="M49.5053 40.3514H48.8633V35.2939H49.4696V36.197C49.7549 35.5829 50.3256 35.2217 51.1816 35.2217V35.9081H51.0389C50.2186 35.9081 49.5053 36.3054 49.5053 37.5698V40.3514Z" fill="white"/>
<path d="M54.2842 35.2218C55.1759 35.2218 55.9249 35.7275 56.2815 36.4139V33.5239H56.8879V40.3876H56.2815V39.2316C55.9605 39.918 55.3185 40.4599 54.2842 40.4599C52.9289 40.4599 51.8945 39.4484 51.8945 37.8589C51.8945 36.2694 52.8932 35.2218 54.2842 35.2218ZM54.3912 35.7637C53.3569 35.7637 52.5365 36.5223 52.5365 37.7866C52.5365 39.051 53.3569 39.8458 54.3912 39.8458C55.3899 39.8458 56.2459 39.051 56.2459 37.7866C56.2459 36.5584 55.3899 35.7637 54.3912 35.7637Z" fill="white"/>
<path d="M60.0623 40.4237C58.921 40.4237 58.1006 39.8457 58.0293 38.9425H58.707C58.7426 39.4844 59.242 39.8818 60.0623 39.8818C60.7756 39.8818 61.2036 39.4844 61.2036 39.0148C61.2036 37.7504 58.2076 38.509 58.2076 36.5944C58.2076 35.8358 58.921 35.2217 59.9553 35.2217C60.9896 35.2217 61.7386 35.7997 61.7743 36.775H61.168C61.1323 36.2332 60.7043 35.7997 59.9553 35.7997C59.2776 35.7997 58.8496 36.1609 58.8496 36.5944C58.8496 37.9672 61.81 37.2085 61.8456 39.0509C61.7743 39.8457 61.0966 40.4237 60.0623 40.4237Z" fill="white"/>
<path d="M63.165 35.8359H62.4517V35.294H63.165V34.9327C63.165 33.8129 63.6643 33.3071 64.9127 33.3071V33.849C64.0567 33.849 63.7713 34.1741 63.7713 34.8966V35.2579H64.9483V35.7997H63.7713V40.2792H63.165V35.8359Z" fill="white"/>
<path d="M68.1583 40.4238C66.7673 40.4238 65.6616 39.4484 65.6616 37.8228C65.6616 36.1972 66.7673 35.2218 68.1583 35.2218C69.5493 35.2218 70.655 36.1972 70.655 37.8228C70.6906 39.4484 69.5493 40.4238 68.1583 40.4238ZM68.1583 39.8819C69.0856 39.8819 70.013 39.2678 70.013 37.8228C70.013 36.3778 69.1213 35.7637 68.194 35.7637C67.2666 35.7637 66.375 36.3778 66.375 37.8228C66.375 39.2678 67.231 39.8819 68.1583 39.8819ZM67.0883 34.1381C67.0883 33.8852 67.2666 33.7046 67.5163 33.7046C67.766 33.7046 67.9443 33.8852 67.9443 34.1381C67.9443 34.391 67.766 34.5716 67.5163 34.5716C67.2666 34.4993 67.0883 34.3548 67.0883 34.1381ZM68.4793 34.1381C68.4793 33.8852 68.6576 33.7046 68.9073 33.7046C69.157 33.7046 69.3353 33.8852 69.3353 34.1381C69.3353 34.391 69.157 34.5716 68.9073 34.5716C68.6576 34.4993 68.4793 34.3548 68.4793 34.1381Z" fill="white"/>
<path d="M72.474 40.3514H71.8677V35.2939H72.474V36.197C72.7593 35.5829 73.33 35.2217 74.186 35.2217V35.9081H74.0433C73.223 35.9081 72.5097 36.3054 72.5097 37.5698V40.3514H72.474Z" fill="white"/>
<path d="M76.8611 40.4237C75.7198 40.4237 74.8995 39.8457 74.8281 38.9425H75.5058C75.5415 39.4844 76.0408 39.8818 76.8611 39.8818C77.5745 39.8818 78.0025 39.4844 78.0025 39.0148C78.0025 37.7504 75.0065 38.509 75.0065 36.5944C75.0065 35.8358 75.7198 35.2217 76.7541 35.2217C77.7885 35.2217 78.5375 35.7997 78.5731 36.775H77.9668C77.9311 36.2332 77.5031 35.7997 76.7541 35.7997C76.0765 35.7997 75.6485 36.1609 75.6485 36.5944C75.6485 37.9672 78.6088 37.2085 78.6445 39.0509C78.6088 39.8457 77.8955 40.4237 76.8611 40.4237Z" fill="white"/>
<path d="M81.8902 35.2218C82.8888 35.2218 83.5665 35.7637 83.8875 36.414V35.2941H84.4938V40.3516H83.8875V39.2317C83.5665 39.8458 82.9245 40.4238 81.8902 40.4238C80.5348 40.4238 79.5005 39.4123 79.5005 37.8228C79.5005 36.2333 80.5348 35.2218 81.8902 35.2218ZM81.9972 35.7637C80.9628 35.7637 80.1425 36.5223 80.1425 37.7867C80.1425 39.0511 80.9628 39.8458 81.9972 39.8458C82.9958 39.8458 83.8518 39.0511 83.8518 37.7867C83.8875 36.5585 83.0672 35.7637 81.9972 35.7637ZM81.0698 34.1742C81.0698 33.9213 81.2482 33.7407 81.4978 33.7407C81.7475 33.7407 81.9258 33.9213 81.9258 34.1742C81.9258 34.4271 81.7475 34.6077 81.4978 34.6077C81.2125 34.6077 81.0698 34.391 81.0698 34.1742ZM82.4608 34.1742C82.4608 33.9213 82.6392 33.7407 82.8888 33.7407C83.1385 33.7407 83.3168 33.9213 83.3168 34.1742C83.3168 34.4271 83.1385 34.6077 82.8888 34.6077C82.6748 34.6077 82.4608 34.391 82.4608 34.1742Z" fill="white"/>
<path d="M85.9561 33.4878H86.5624V37.5338L88.5954 35.294H89.4871L87.0974 37.8228L89.4871 40.3515H88.6311L86.5624 38.0756V40.3515H85.9561V33.4878Z" fill="white"/>
<path d="M90.9852 40.3514H90.3789V35.2939H90.9852V36.197C91.2706 35.5829 91.8412 35.2217 92.6972 35.2217V35.9081H92.5546C91.7342 35.9081 91.0209 36.3054 91.0209 37.5698L90.9852 40.3514Z" fill="white"/>
<path d="M93.5176 33.849C93.5176 33.56 93.6959 33.3794 93.9812 33.3794C94.2666 33.3794 94.4449 33.56 94.4449 33.849C94.4449 34.138 94.2666 34.3186 93.9812 34.3186C93.6959 34.3186 93.5176 34.138 93.5176 33.849ZM93.6602 35.294H94.2666V40.3515H93.6602V35.294Z" fill="white"/>
<path d="M99.5096 37.4614C99.5096 36.3415 98.9033 35.7635 97.976 35.7635C97.0487 35.7635 96.371 36.3415 96.371 37.5698V40.3153H95.7646V35.2578H96.371V36.1248C96.692 35.5107 97.334 35.1855 98.083 35.1855C99.2243 35.1855 100.116 35.908 100.116 37.353V40.3153H99.5096V37.4614Z" fill="white"/>
<path d="M103.611 35.2217C104.574 35.2217 105.288 35.7636 105.609 36.4138V35.2939H106.215V40.4598C106.215 41.8686 105.252 42.8079 103.897 42.8079C102.613 42.8079 101.721 42.1215 101.507 41.0739H102.113C102.292 41.7603 102.969 42.2299 103.861 42.2299C104.788 42.2299 105.537 41.6158 105.537 40.4598V39.1954C105.216 39.8095 104.574 40.3875 103.54 40.3875C102.185 40.3875 101.15 39.376 101.15 37.7865C101.15 36.197 102.256 35.2217 103.611 35.2217ZM103.754 35.7636C102.72 35.7636 101.899 36.5222 101.899 37.7865C101.899 39.0509 102.72 39.8457 103.754 39.8457C104.753 39.8457 105.609 39.0509 105.609 37.7865C105.609 36.5583 104.788 35.7636 103.754 35.7636Z" fill="white"/>
</svg>
