<svg width="63" height="17" viewBox="0 0 63 17" fill="none" xmlns="http://www.w3.org/2000/svg">
<path d="M8.20535 0H10.4952V10.8928C10.4952 14.3538 7.90852 16.2011 5.25821 16.2011C2.31107 16.2011 0 13.8442 0 10.9777C0 8.06871 2.24746 5.75426 5.23701 5.75426C7.10282 5.75426 8.18415 6.68854 8.18415 6.68854L8.20535 0ZM5.25821 13.9928C6.9332 13.9928 8.20535 12.6976 8.20535 10.9777C8.20535 9.17285 6.8908 7.96254 5.25821 7.96254C3.60442 7.96254 2.31107 9.21531 2.31107 10.9777C2.31107 12.6976 3.60442 13.9928 5.25821 13.9928Z" fill="white"/>
<path d="M17.9585 11.381V5.86035H20.2484V11.381C20.2484 14.8846 17.9797 16.201 15.8807 16.201C13.824 16.201 11.5342 14.9058 11.5342 11.381V5.86035H13.824V11.381C13.824 13.1647 14.6721 13.9928 15.8595 13.9928C17.1104 13.9928 17.9585 13.1434 17.9585 11.381Z" fill="white"/>
<path d="M23.5985 10.5744V16.0951H21.3086V10.5744C21.3086 7.04963 23.5773 5.75439 25.6551 5.75439C27.7329 5.75439 30.0228 7.07087 30.0228 10.5744V16.0951H27.7329V10.5744C27.7329 8.83324 26.8848 7.96267 25.6763 7.96267C24.4466 7.94144 23.5985 8.79078 23.5985 10.5744Z" fill="white"/>
<path d="M33.691 16.2012C32.0796 16.2012 30.8499 15.4581 30.8499 15.4581V13.2286C30.8499 13.2286 32.1008 13.993 33.691 13.993C34.2847 13.993 35.0904 13.8231 35.0904 13.0375C35.0904 11.4237 30.7227 12.0395 30.7227 8.74831C30.7227 6.85853 32.3128 5.75439 34.3271 5.75439C35.9809 5.75439 36.9562 6.41263 36.9562 6.41263V8.55721C36.9562 8.55721 35.8961 7.98391 34.3271 7.98391C33.903 7.98391 33.0337 8.11131 33.0337 8.76954C33.0337 10.1922 37.4014 9.57642 37.4014 13.0587C37.3802 15.0122 35.8961 16.2012 33.691 16.2012Z" fill="white"/>
<path d="M42.5319 16.0951H42.0442C40.0088 16.0951 38.1006 15.1821 38.1006 11.9971V1.29541H40.3692V5.8606H42.3411V8.06888H40.3692V11.9758C40.3692 13.1861 40.7933 13.8656 42.0442 13.8656H42.5319V16.0951Z" fill="white"/>
<path d="M50.6099 15.267C50.6099 15.267 49.5286 16.2012 47.6628 16.2012C44.6732 16.2012 42.4258 13.8656 42.4258 10.9778C42.4258 8.09007 44.7156 5.75439 47.6628 5.75439C50.3131 5.75439 52.8998 7.6017 52.8998 11.0628V16.0951H50.6099V15.267ZM47.6628 13.993C49.2954 13.993 50.6099 12.7614 50.6099 10.9778C50.6099 9.25791 49.3378 7.96267 47.6628 7.96267C46.009 7.96267 44.7156 9.25791 44.7156 10.9778C44.7156 12.7402 46.009 13.993 47.6628 13.993Z" fill="white"/>
<path d="M56.2713 10.5744V16.0951H53.9814V10.5744C53.9814 7.04963 56.2501 5.75439 58.3279 5.75439C60.4058 5.75439 62.6957 7.07087 62.6957 10.5744V16.0951H60.4058V10.5744C60.4058 8.83324 59.5577 7.96267 58.3491 7.96267C57.0982 7.94144 56.2713 8.79078 56.2713 10.5744Z" fill="white"/>
</svg>
